# xmcd
#
# Track frame offsets:
#        150
#        15097
#        29555
#        45812
#        65497
#        79652
#        101120
#        118450
#        131035
#        151407
#        170702
#        188552
#        206617
#        223655
#        242882
#        264632
#
# Disc length: 3777 seconds
#
# Revision: 0
# Processed by: cddbd v1.5.1PL2 Copyright (c) Steve Scherf et al.
# Submitted via: ExactAudioCopy v0.95b3
#
DISCID=e10ebf10
DTITLE=Dream Sound Orchestra - Popular Collection 7 PIANO 2
DYEAR=2005
DGENRE=Classical
TTITLE0=Music box dancer
TTITLE1=A comme Amour
TTITLE2=Feelings
TTITLE3=I just called to say I love you
TTITLE4=Evergreen
TTITLE5=Piano man
TTITLE6=Hello
TTITLE7=Evony and ivory
TTITLE8=How am I supposed to live without you
TTITLE9=It must have been love
TTITLE10=Under the boardwalk
TTITLE11=Time after time
TTITLE12=Concerto pour une jeune fille
TTITLE13=Walking in Memphis
TTITLE14=A nother day in paradise
TTITLE15=Somethimes then we touch
EXTD=
EXTT0=
EXTT1=
EXTT2=
EXTT3=
EXTT4=
EXTT5=
EXTT6=
EXTT7=
EXTT8=
EXTT9=
EXTT10=
EXTT11=
EXTT12=
EXTT13=
EXTT14=
EXTT15=
PLAYORDER=
